<?xml version="1.0" standalone="no"?>
<!DOCTYPE svg PUBLIC "-//W3C//DTD SVG 20010904//EN"
 "http://www.w3.org/TR/2001/REC-SVG-20010904/DTD/svg10.dtd">
<svg version="1.0" xmlns="http://www.w3.org/2000/svg"
 width="1080.000000pt" height="1350.000000pt" viewBox="0 0 1080.000000 1350.000000"
 preserveAspectRatio="xMidYMid meet">

<g transform="translate(0.000000,1350.000000) scale(0.100000,-0.100000)"
fill="#000000" stroke="none">
<path d="M4560 9556 c-54 -15 -102 -39 -119 -60 -20 -24 -65 -28 -129 -12 -33
9 -82 16 -108 16 -60 0 -159 -29 -218 -64 -61 -35 -142 -128 -172 -195 l-26
-57 -89 4 c-79 4 -98 1 -165 -23 -186 -68 -304 -271 -265 -455 35 -163 154
-283 309 -311 91 -17 108 -30 120 -91 6 -29 7 -56 4 -60 -4 -3 -38 11 -75 33
-47 26 -81 39 -107 39 -41 0 -54 -10 -64 -52 -3 -16 -11 -28 -17 -28 -6 0 -37
29 -70 64 -72 77 -152 122 -254 141 -180 35 -365 -52 -442 -206 -45 -92 -59
-173 -44 -259 7 -38 10 -74 7 -79 -4 -5 -28 -17 -54 -27 -109 -41 -173 -108
-212 -225 -19 -53 -21 -78 -17 -149 3 -51 14 -106 26 -138 l21 -53 -51 -47
c-60 -55 -95 -112 -115 -184 -61 -229 79 -440 315 -479 67 -11 89 -27 60 -44
-5 -4 -14 -17 -19 -30 -6 -16 -20 -24 -47 -29 -132 -24 -231 -85 -296 -184
-65 -96 -77 -137 -77 -250 0 -88 3 -100 34 -166 32 -66 80 -126 135 -169 15
-12 20 -24 16 -35 -17 -43 -26 -132 -20 -187 12 -114 107 -264 192 -304 15 -7
35 -17 43 -21 11 -5 16 -33 21 -116 5 -92 10 -118 34 -167 66 -135 197 -206
359 -194 83 6 162 32 187 64 8 9 31 29 52 44 31 22 43 26 66 19 39 -11 78 13
245 156 33 28 49 31 42 7 -3 -10 -8 -35 -12 -55 -6 -34 -10 -39 -48 -48 -71
-17 -124 -51 -184 -114 -70 -76 -109 -153 -124 -249 -31 -201 60 -381 239
-469 61 -30 77 -33 176 -37 l109 -3 28 -64 c40 -87 69 -128 119 -165 88 -63
166 -84 300 -80 l84 2 41 -39 c72 -69 195 -122 284 -122 46 0 158 33 187 54
27 21 48 20 118 -5 84 -30 209 -24 288 13 105 48 165 119 212 249 23 62 23 69
12 160 -7 51 -20 117 -29 144 -19 61 -20 92 -1 125 9 17 10 29 3 37 -6 7 -17
47 -25 88 -14 79 -8 112 30 143 12 10 15 4 21 -40 3 -29 6 -72 6 -95 0 -26 6
-45 14 -50 18 -10 36 -106 36 -188 0 -34 -7 -112 -15 -174 -20 -155 -8 -235
41 -262 21 -11 27 -10 42 4 13 13 18 45 24 140 7 116 19 201 31 213 3 3 18 -8
33 -26 28 -31 28 -33 29 -168 0 -128 2 -142 29 -206 65 -154 208 -246 385
-246 156 0 250 49 351 183 19 25 41 47 49 47 7 0 34 -19 60 -42 107 -96 250
-105 406 -25 55 28 147 124 175 183 13 27 25 51 26 53 2 2 37 3 78 2 141 -4
258 43 348 137 127 133 176 304 132 453 -25 83 -83 157 -179 228 -57 42 -91
57 -155 67 -67 10 -80 19 -80 60 0 59 -51 152 -129 236 l-73 78 27 10 c14 5
31 10 36 10 6 0 45 -37 87 -82 94 -100 170 -151 253 -169 47 -10 66 -20 83
-42 63 -86 150 -166 214 -198 63 -31 73 -33 172 -33 100 0 108 2 180 36 93 45
140 86 184 161 42 72 61 164 53 266 l-6 76 57 30 c119 62 179 147 202 288 14
79 3 151 -31 219 -27 52 -25 61 25 104 44 40 116 142 116 167 0 7 6 19 13 25
8 9 12 46 12 110 0 88 -3 103 -30 155 -45 91 -96 142 -183 185 -76 37 -78 37
-197 37 -109 -1 -125 -3 -179 -28 -32 -15 -63 -27 -68 -27 -5 0 -35 18 -66 40
-73 52 -111 62 -253 61 -133 0 -222 -19 -278 -57 -43 -29 -57 -30 -96 -4 -16
11 -52 28 -80 37 -70 23 -266 40 -343 30 -81 -10 -166 -50 -199 -93 -14 -19
-30 -34 -35 -34 -5 0 -38 20 -72 45 -35 25 -68 45 -74 45 -5 0 -15 6 -21 14
-17 21 7 26 162 36 73 5 150 14 172 21 22 7 140 15 265 19 132 4 242 13 265
20 29 9 96 11 241 8 186 -5 203 -7 230 -27 51 -37 114 -38 114 -1 0 11 -12 27
-26 37 -25 16 -25 17 -8 31 57 42 67 43 135 10 60 -29 72 -32 174 -32 103 -1
114 1 175 30 98 47 162 110 212 210 41 83 42 87 42 192 1 85 -3 117 -18 152
-34 78 -84 145 -133 180 -59 42 -63 48 -53 76 25 64 30 141 15 219 -29 151
-124 262 -266 310 l-44 15 0 98 c0 91 -2 101 -37 172 -60 122 -179 223 -300
256 -78 20 -207 18 -268 -5 -109 -42 -190 -128 -235 -251 -27 -75 -32 -81 -65
-90 -64 -17 -100 -23 -100 -15 0 16 46 80 131 183 91 110 114 157 89 187 -7 8
-27 15 -45 15 -17 0 -35 3 -38 6 -3 4 13 32 37 63 79 103 91 139 91 276 0 110
-2 125 -27 176 -51 106 -152 196 -267 240 -61 23 -207 29 -267 11 -38 -12 -40
-10 -87 55 -84 115 -212 182 -353 183 -68 0 -101 -9 -190 -51 -73 -34 -74 -35
-147 -9 -169 60 -376 -22 -457 -180 -26 -51 -50 -157 -50 -225 0 -44 -4 -53
-42 -92 -23 -24 -46 -43 -50 -43 -4 0 -8 25 -8 56 0 59 -17 141 -33 162 -14
18 -58 15 -73 -5 -8 -12 -14 -49 -14 -103 -1 -55 -4 -78 -10 -65 -4 11 -20 51
-36 89 -38 95 -114 176 -209 221 -40 19 -79 35 -88 35 -9 0 -46 27 -82 60
-143 129 -292 175 -435 136z m92 -143 c15 -3 33 -12 40 -21 14 -17 14 -17 -32
2 -10 4 -19 -3 -28 -21 -12 -27 -55 -78 -100 -116 -31 -28 -62 -14 -62 27 0
66 85 155 135 140 11 -3 32 -8 47 -11z m1463 -28 c26 -25 34 -78 15 -90 -5 -3
-20 6 -33 21 l-24 27 -69 -25 c-145 -54 -163 -55 -140 -10 21 40 47 60 107 82
75 27 114 26 144 -5z m540 11 c72 -31 112 -99 63 -109 -15 -3 -9 -5 14 -6 31
-1 40 -6 53 -31 24 -47 17 -101 -14 -99 -24 1 -94 88 -88 110 3 12 -2 20 -17
25 -37 11 -106 58 -112 77 -14 43 37 59 101 33z m-2567 -98 c20 -20 14 -35
-30 -87 -24 -27 -58 -67 -76 -90 -38 -47 -67 -53 -84 -16 -12 27 -1 64 40 127
42 64 118 98 150 66z m1082 -94 c35 -30 67 -84 50 -84 -18 0 -99 59 -109 79
-21 39 15 42 59 5z m2015 -19 c52 -51 24 -79 -67 -69 -111 12 -134 32 -82 73
39 31 117 29 149 -4z m-3598 -179 c11 -11 -7 -37 -31 -46 -27 -10 -56 -65 -56
-106 0 -31 -46 -134 -60 -134 -22 0 -32 53 -20 118 23 131 64 189 129 178 18
-3 36 -7 38 -10z m1199 -156 c29 -16 61 -41 73 -56 24 -31 28 -72 6 -80 -13
-5 -176 88 -217 124 -12 9 -18 11 -18 4 0 -15 -37 -16 -45 -1 -9 13 -4 18 23
22 12 2 25 6 28 10 19 18 101 6 150 -23z m1743 -109 c40 -29 79 -106 65 -128
-19 -31 -43 -26 -81 17 -20 22 -59 54 -85 70 -56 35 -63 63 -20 78 30 10 72
-3 121 -37z m-1132 7 c-3 -8 -6 -5 -6 6 -1 11 2 17 5 13 3 -3 4 -12 1 -19z
m-11 -70 c-3 -24 -9 -71 -12 -105 -7 -66 -20 -78 -50 -49 -19 19 -19 18 19
113 35 90 53 107 43 41z m188 -153 c22 -42 20 -68 -8 -94 -13 -12 -31 -48 -40
-79 -9 -31 -20 -68 -24 -82 -11 -36 -26 -27 -36 22 -10 50 20 365 36 386 8 9
17 -5 34 -55 12 -38 29 -81 38 -98z m1282 131 c50 -8 105 -21 122 -30 40 -20
82 -66 82 -87 0 -16 -5 -16 -49 -4 -27 7 -54 16 -60 19 -6 4 -52 11 -102 17
-49 5 -99 14 -110 19 -25 14 -36 59 -18 71 18 11 28 11 135 -5z m-2806 -56
c23 0 47 -8 61 -20 l24 -20 -24 -20 c-28 -24 -62 -25 -127 -4 -57 19 -76 32
-71 48 4 12 64 26 85 20 8 -2 31 -4 52 -4z m-153 -47 c-10 -49 -60 -238 -64
-242 -2 -3 -17 10 -33 28 -24 25 -30 41 -30 76 0 84 50 165 102 165 28 0 30
-2 25 -27z m1277 -69 c9 -8 14 -20 11 -25 -13 -19 -149 -6 -142 15 9 26 108
34 131 10z m676 -38 c0 -8 -14 -19 -31 -25 -42 -14 -51 -14 -75 3 -18 14 -18
15 6 25 39 15 100 14 100 -3z m-800 -26 c0 -6 -13 -10 -30 -10 -32 0 -37 9
-18 28 12 12 48 -1 48 -18z m897 21 c35 -10 118 -75 129 -100 16 -37 21 -101
9 -111 -31 -26 -64 19 -72 96 l-6 53 -51 17 c-57 19 -78 32 -70 45 7 11 21 11
61 0z m1173 -56 c0 -20 -69 -95 -87 -95 -13 0 -13 4 2 28 23 35 66 82 77 82 4
0 8 -7 8 -15z m791 -24 c83 -39 136 -111 94 -127 -8 -3 -27 3 -42 13 -27 19
-135 66 -180 78 -32 9 -53 33 -46 52 9 22 113 13 174 -16z m-2411 -150 c0 -34
23 -223 30 -251 5 -20 18 -45 28 -56 10 -11 26 -31 36 -46 17 -26 17 -27 -18
-75 -21 -29 -40 -72 -47 -104 -11 -52 -7 -186 7 -223 6 -15 3 -17 -13 -12 -15
5 -25 0 -37 -19 -30 -45 -94 -27 -75 22 5 14 12 66 16 117 4 55 13 103 23 121
28 51 43 146 36 231 -14 176 -18 274 -12 289 6 16 26 21 26 6z m-2662 -63 c9
-19 11 -46 6 -89 -6 -51 -11 -62 -31 -72 -20 -9 -27 -7 -44 9 -28 28 -30 135
-4 164 25 27 57 22 73 -12z m696 -22 c18 -7 47 -31 64 -52 53 -64 7 -55 -69
13 -55 50 -54 64 5 39z m3506 4 c0 -19 -122 -151 -153 -164 -46 -21 -107 -75
-84 -76 20 0 21 -9 3 -32 -15 -20 -46 -24 -46 -7 0 7 -6 17 -14 23 -12 9 -21
59 -17 103 1 6 20 14 44 18 23 4 59 18 79 31 21 13 41 24 46 24 5 0 37 20 73
45 71 50 69 49 69 35z m-2655 -58 c-10 -40 -33 -87 -56 -111 -42 -45 -66 25
-33 95 22 46 51 66 76 53 15 -8 18 -17 13 -37z m2102 23 c9 -24 0 -25 -26 -4
-23 19 -23 19 -2 19 12 0 24 -7 28 -15z m81 -16 c31 -31 42 -72 22 -84 -18
-11 -70 51 -70 84 0 39 8 39 48 0z m902 -12 c50 -25 90 -81 71 -100 -8 -8 -39
-1 -118 25 -97 32 -108 38 -111 61 -2 20 3 27 25 36 36 13 76 7 133 -22z
m-4094 -11 c3 -8 -6 -42 -19 -75 -21 -52 -23 -68 -15 -104 5 -23 7 -57 3 -75
-7 -36 -46 -68 -71 -58 -15 6 -16 20 -9 119 7 119 13 136 53 180 28 30 50 35
58 13z m3904 -5 c0 -6 -4 -13 -10 -16 -5 -3 -10 1 -10 9 0 9 5 16 10 16 6 0
10 -4 10 -9z m-2960 -128 c1 -20 165 -174 288 -270 28 -23 3 -27 -36 -6 -20
11 -64 35 -97 54 -33 18 -77 42 -97 53 -50 26 -97 73 -104 102 -10 38 4 74 26
74 11 0 20 -3 20 -7z m3236 -29 c9 -50 -2 -133 -22 -155 -13 -14 -21 -16 -36
-8 -18 9 -20 18 -15 67 9 109 58 174 73 96z m673 -4 c47 -13 110 -58 127 -91
31 -61 8 -107 -39 -76 -162 112 -177 127 -163 163 6 16 28 18 75 4z m-2141
-236 c25 -100 -25 -210 -55 -121 -26 74 -32 175 -12 188 24 14 53 -15 67 -67z
m-2228 -6 c0 -15 -48 -58 -65 -58 -23 0 -18 24 11 53 24 24 54 27 54 5z m1092
0 c6 -15 -14 -143 -23 -152 -3 -4 32 -44 78 -91 86 -85 101 -117 57 -123 -44
-6 -185 135 -171 171 3 8 -3 21 -14 30 -15 13 -17 21 -9 42 6 15 10 40 10 58
0 48 59 101 72 65z m-1614 -40 c2 -20 -5 -31 -30 -49 -18 -12 -53 -42 -76 -66
-48 -47 -52 -49 -70 -31 -18 18 -15 57 8 93 19 31 78 77 110 87 27 9 55 -8 58
-34z m3748 -10 c33 -31 86 -129 83 -151 -2 -6 3 -24 11 -39 17 -35 -2 -107
-36 -139 -23 -21 -25 -22 -41 -6 -15 15 -16 23 -5 63 7 26 22 59 33 75 l20 28
-37 57 c-20 32 -55 74 -77 94 -24 22 -37 42 -33 49 11 17 46 4 82 -31z m-4549
-30 c11 -18 62 -189 63 -211 0 -21 -42 -42 -65 -33 -26 9 -69 115 -69 168 0
65 46 114 71 76z m1259 -46 c-15 -15 -16 -15 -16 5 0 12 6 23 13 26 19 6 21
-13 3 -31z m914 -25 c0 -17 -44 -59 -53 -50 -14 14 -6 40 16 51 30 15 37 14
37 -1z m1610 -12 c0 -3 -16 -37 -35 -75 -19 -38 -35 -76 -35 -85 0 -23 -21
-18 -59 15 -31 26 -33 32 -26 67 10 53 23 75 43 69 9 -3 35 -1 57 4 54 11 55
11 55 5z m1444 -28 c30 -40 34 -149 8 -197 -14 -25 -26 -35 -43 -35 -23 0 -24
2 -29 105 -3 58 -9 111 -13 118 -12 18 12 44 36 40 11 -2 29 -16 41 -31z
m-1734 -29 c-2 -48 -101 -147 -135 -134 -49 19 40 146 103 146 19 0 32 -5 32
-12z m-1529 -38 c15 0 49 -39 49 -56 0 -12 -9 -14 -42 -12 -37 3 -43 7 -49 32
-10 34 -3 50 18 42 8 -3 19 -6 24 -6z m4053 -162 c39 -46 48 -97 21 -132 -19
-25 -26 -20 -79 48 -53 68 -62 91 -46 111 24 29 66 18 104 -27z m-645 -74 c23
-26 41 -51 41 -57 0 -6 16 -25 35 -43 31 -28 35 -37 35 -82 0 -28 -3 -57 -6
-66 -10 -25 -31 -19 -43 14 -6 17 -16 44 -22 60 -6 17 -15 30 -20 30 -14 0
-70 62 -80 88 -11 27 -12 86 -2 95 12 13 21 7 62 -39z m-4785 -36 c25 -40
-110 -123 -158 -96 -25 14 -19 33 17 60 76 58 120 69 141 36z m2220 -59 c-1
-21 -9 -60 -19 -86 -16 -40 -16 -48 -3 -57 43 -33 66 -55 94 -91 37 -47 47
-75 35 -94 -26 -40 -156 77 -185 167 -16 47 -16 61 -6 118 9 48 19 69 38 84
33 26 47 13 46 -41z m-614 -29 c80 -92 104 -154 68 -176 -12 -8 -108 85 -108
103 0 7 -3 13 -7 13 -17 0 -58 113 -48 130 10 16 38 -4 95 -70z m1919 11 c40
-56 53 -221 17 -221 -21 0 -73 194 -61 230 9 27 20 25 44 -9z m-4209 3 c0 -9
-8 -23 -17 -30 -17 -12 -15 -18 25 -96 46 -90 51 -115 25 -125 -24 -9 -88 66
-108 128 -18 54 -14 92 12 122 21 22 63 23 63 1z m1149 -74 c13 -59 12 -64 -5
-77 -26 -19 -39 -11 -42 28 -5 51 7 121 21 116 7 -2 18 -32 26 -67z m2717 45
c-23 -93 -96 -189 -139 -183 -32 4 -26 50 14 107 55 81 139 132 125 76z m998
-21 c9 -23 7 -74 -2 -74 -11 0 -33 70 -26 82 8 13 21 9 28 -8z m-4378 -12 c6
-4 19 -25 28 -47 10 -22 24 -53 32 -68 8 -16 14 -34 14 -42 0 -7 17 -29 38
-49 29 -29 34 -38 23 -45 -17 -11 -52 1 -99 32 -62 42 -112 192 -72 217 18 12
22 12 36 2z m4438 -28 c3 -9 6 -31 6 -49 0 -43 -9 -65 -26 -65 -15 0 -18 31
-8 93 7 39 18 48 28 21z m-2194 -81 c45 -59 126 -136 168 -160 85 -50 213 -59
285 -21 31 16 31 2 2 -59 -22 -43 -30 -76 -33 -135 -7 -116 8 -158 89 -243 38
-39 65 -76 61 -82 -8 -12 -78 -53 -92 -53 -5 0 -18 17 -29 38 -26 50 -108 126
-168 154 -38 18 -64 23 -128 22 -98 -1 -167 -30 -234 -99 -24 -24 -47 -42 -52
-40 -4 3 -14 19 -23 35 -17 34 -15 36 58 62 65 23 104 51 143 102 56 73 74
153 52 225 -36 112 -68 159 -156 221 -24 17 -43 34 -43 39 0 6 15 12 33 14 17
2 35 5 39 5 4 1 16 -10 28 -25z m925 -45 c25 -87 24 -90 -36 -68 -28 11 -75
24 -105 31 -61 14 -60 19 11 44 28 10 61 26 75 36 14 9 28 15 32 13 4 -3 14
-28 23 -56z m-2478 10 c22 -24 43 -85 36 -105 -10 -28 -50 6 -78 65 -28 57 1
84 42 40z m1476 -89 c49 -25 117 -87 117 -107 0 -22 -73 -9 -147 27 -58 29
-93 66 -93 102 0 16 71 4 123 -22z m-834 -34 c-2 -2 -16 -6 -32 -10 -24 -6
-26 -5 -20 11 10 28 24 34 41 18 8 -8 13 -17 11 -19z m3691 25 c0 -17 -38 -30
-87 -30 -63 0 -86 14 -47 28 37 13 134 15 134 2z m-4356 -66 c55 -30 62 -40
38 -49 -24 -10 -262 -20 -262 -11 0 4 24 18 53 31 28 13 61 30 72 39 28 22 46
20 99 -10z m-669 -10 c24 -9 -1 -24 -40 -24 -29 1 -29 1 -11 15 22 17 27 18
51 9z m1653 -66 c26 -8 32 -15 30 -31 -3 -24 3 -23 -123 -12 -108 9 -137 15
-133 27 11 33 140 42 226 16z m1825 -27 c7 -7 -4 -16 -37 -31 -61 -26 -86 -26
-86 -1 0 11 -3 27 -7 37 -6 15 0 17 56 11 35 -3 68 -10 74 -16z m-671 -161 c9
-44 12 -47 71 -69 105 -40 152 -86 110 -109 -24 -14 -113 17 -164 57 -58 46
-85 143 -56 204 l12 26 8 -32 c5 -18 13 -52 19 -77z m-2218 91 c8 -12 -32 -61
-49 -61 -19 0 -135 54 -135 63 0 10 178 9 184 -2z m-476 -70 c10 -6 6 -11 -15
-19 -52 -20 -93 -23 -93 -7 0 29 75 47 108 26z m4322 -31 c26 -28 40 -67 40
-115 0 -12 7 -36 16 -54 10 -21 14 -44 10 -66 -8 -40 -29 -61 -44 -43 -16 21
-25 95 -13 117 9 16 6 28 -20 66 -33 49 -51 125 -29 125 6 0 24 -13 40 -30z
m580 -2 c0 -5 -2 -8 -5 -8 -3 0 -12 0 -20 0 -8 0 -15 4 -15 9 0 4 9 8 20 7 11
0 20 -4 20 -8z m68 -60 c27 -30 62 -112 62 -146 0 -40 -16 -59 -36 -47 -19 12
-97 193 -88 206 10 16 40 9 62 -13z m-3789 -40 c7 -29 16 -82 21 -118 4 -36
11 -77 15 -92 15 -58 -36 -23 -65 45 -31 74 -25 217 9 217 5 0 14 -24 20 -52z
m-649 -39 c0 -15 7 -45 15 -68 12 -35 12 -41 0 -41 -8 0 -20 18 -26 40 -12 39
-29 54 -29 25 0 -22 -18 -18 -25 5 -7 23 1 55 22 89 l16 24 13 -24 c7 -13 13
-36 14 -50z m1140 14 c0 -28 -117 -153 -144 -153 -20 0 -20 -1 8 63 13 29 42
73 64 97 35 36 44 41 57 30 8 -7 15 -24 15 -37z m1495 5 c58 -45 149 -218 127
-240 -14 -14 -75 43 -133 126 -48 68 -55 88 -43 120 8 21 16 20 49 -6z m-753
-18 c48 -39 104 -126 120 -184 11 -40 10 -50 -5 -75 -9 -16 -17 -44 -17 -63 0
-36 -39 -88 -65 -88 -25 0 -19 96 10 155 l24 49 -27 34 c-85 106 -111 155 -98
187 8 21 17 19 58 -15z m-2537 -27 c8 -19 15 -45 15 -58 0 -22 41 -75 59 -75
13 0 51 -81 51 -108 0 -26 -22 -38 -45 -25 -31 18 -135 156 -141 188 -10 55
14 133 37 119 5 -3 16 -21 24 -41z m5648 -5 c31 -42 57 -110 57 -149 0 -58
-50 -119 -86 -105 -21 8 -17 35 7 55 l21 17 -41 99 c-22 54 -41 102 -41 107 0
4 13 8 29 8 22 0 36 -9 54 -32z m-2483 -98 c0 -4 3 -22 7 -40 l6 -33 -35 26
c-19 15 -40 27 -47 27 -18 0 -2 20 23 29 22 9 46 4 46 -9z m1925 -55 c0 -23
-120 -109 -140 -101 -8 3 -18 14 -24 25 -8 15 -7 24 7 39 46 55 157 81 157 37z
m-2042 -57 c46 -39 52 -58 18 -58 -18 0 -42 16 -99 66 -25 22 -33 36 -29 49 7
16 8 16 35 0 15 -10 48 -36 75 -57z m-3568 -29 c25 -34 45 -67 45 -74 0 -19
-28 -45 -48 -45 -39 1 -92 66 -92 114 0 28 24 66 42 66 4 0 28 -27 53 -61z
m784 -38 c11 -7 11 -17 1 -61 -7 -31 -10 -76 -6 -111 4 -48 3 -60 -11 -67 -50
-28 -78 25 -71 135 4 64 9 80 28 95 25 20 38 22 59 9z m537 -35 c19 -15 19
-15 -4 -58 -12 -24 -22 -48 -22 -54 0 -6 -9 -19 -20 -29 -17 -16 -18 -20 -5
-44 7 -15 21 -33 29 -40 9 -8 16 -20 16 -29 0 -8 18 -32 40 -52 39 -36 53 -70
28 -70 -30 0 -82 57 -117 129 -47 100 -50 169 -8 224 31 41 35 43 63 23z m659
-56 c4 -6 -4 -27 -17 -48 l-23 -37 -3 33 c-2 19 -1 40 2 48 6 16 32 19 41 4z
m660 -34 c6 -17 6 -33 -1 -43 -11 -17 -82 -49 -90 -40 -9 9 59 118 71 114 5
-2 14 -16 20 -31z m-470 -46 c14 -22 25 -41 25 -43 0 -5 -247 -127 -257 -127
-10 0 188 207 199 209 4 0 19 -17 33 -39z m1950 21 c13 -31 24 -71 19 -71 -9
0 -69 33 -97 53 -32 24 -22 34 33 34 26 0 41 -5 45 -16z m1923 -107 c53 -64
69 -167 32 -204 -35 -35 -63 -22 -75 35 -3 17 -16 63 -27 104 -22 72 -22 73
-3 87 28 21 41 17 73 -22z m-3388 4 c0 -20 -31 -67 -65 -97 -36 -31 -68 -40
-80 -21 -13 21 66 120 105 132 19 6 40 -1 40 -14z m892 -15 c97 -79 168 -186
148 -224 -7 -12 -9 -41 -5 -72 6 -47 4 -55 -20 -79 -42 -45 -55 -37 -54 30 0
31 4 82 9 112 l8 55 -59 54 c-54 48 -99 113 -99 141 0 19 38 10 72 -17z m1869
-49 c14 -13 16 -21 7 -47 -15 -46 -54 -94 -90 -113 -32 -17 -98 -12 -98 7 0
14 141 169 154 169 5 0 17 -7 27 -16z m-611 -38 c0 -16 -7 -27 -21 -31 -31
-10 -35 2 -9 30 29 31 30 31 30 1z m-783 -78 c57 -48 81 -64 151 -106 35 -20
82 -53 104 -73 35 -33 39 -42 36 -76 -2 -30 -7 -39 -25 -41 -16 -2 -28 7 -46
36 -24 37 -79 87 -162 146 -64 46 -125 109 -125 128 0 27 24 22 67 -14z m780
-5 c6 -18 -46 -63 -73 -63 -30 0 -31 19 -3 54 22 28 68 34 76 9z m-3944 -13
c17 -24 14 -72 -7 -122 -49 -114 -96 -63 -65 72 9 41 30 70 50 70 4 0 14 -9
22 -20z m1637 -6 c11 -28 14 -173 4 -198 -9 -23 -37 -20 -53 6 -17 27 -17 150
0 191 14 34 37 35 49 1z m-734 -69 c-9 -21 -16 -50 -16 -64 0 -41 -20 -58 -75
-65 -27 -3 -68 -8 -90 -12 l-40 -7 25 28 c43 48 204 177 208 167 2 -6 -4 -27
-12 -47z m-1578 -8 c20 -13 63 -39 95 -58 56 -33 68 -54 45 -77 -31 -31 -141
7 -184 63 -27 35 -29 47 -14 76 13 24 13 24 58 -4z m1316 -6 c6 -10 -97 -111
-113 -111 -6 0 -11 1 -11 3 0 7 43 93 52 105 12 14 64 16 72 3z m1630 -23 c8
-33 7 -48 -4 -48 -14 0 -32 39 -26 56 8 21 23 17 30 -8z m2199 -40 c9 -36 -18
-214 -36 -240 -39 -55 -54 -70 -73 -66 -28 5 -28 37 0 89 20 39 23 56 19 110
-3 53 -1 70 16 97 25 39 66 45 74 10z m-2279 -114 c10 -64 16 -161 15 -260 0
-244 -19 -305 -34 -114 -11 134 -43 249 -82 292 -14 16 -12 23 21 91 20 41 36
81 36 89 0 21 13 31 21 16 4 -7 14 -59 23 -114z m-2071 -13 c62 -23 64 -27 37
-56 -33 -35 -81 -33 -148 6 -51 29 -72 58 -72 99 0 18 4 18 68 -6 37 -14 88
-34 115 -43z m3514 -15 c7 -11 -88 2 -101 14 -5 5 -6 20 -2 35 l7 26 45 -33
c25 -18 48 -37 51 -42z m-2603 13 c46 -54 28 -114 -19 -63 -27 30 -41 66 -30
83 10 18 22 13 49 -20z m1306 -31 c0 -10 -7 -18 -15 -18 -11 0 -15 11 -15 37
0 35 1 36 15 17 8 -10 15 -27 15 -36z m1108 -35 c4 -44 -23 -92 -61 -108 -18
-7 -35 -11 -39 -9 -12 7 -10 52 2 59 6 3 10 13 10 22 0 8 9 28 21 45 29 40 63
36 67 -9z m-2338 -9 c0 -8 -5 -12 -10 -9 -6 4 -8 11 -5 16 9 14 15 11 15 -7z
m3048 -83 c69 -36 100 -81 56 -81 -16 0 -104 77 -104 91 0 13 6 11 48 -10z
m806 -13 c10 -13 16 -43 16 -73 0 -59 -21 -95 -55 -95 -31 0 -45 26 -45 85 0
87 48 135 84 83z m-4784 -2 c0 -2 -16 -16 -35 -30 l-35 -27 0 30 c0 29 3 31
35 31 19 0 35 -2 35 -4z m-634 -45 c14 -43 31 -55 113 -82 80 -26 100 -41 81
-63 -28 -35 -164 -4 -216 48 -39 39 -51 78 -35 112 15 35 43 27 57 -15z m974
24 c0 -17 -33 -66 -57 -84 -37 -30 -52 -12 -24 28 30 41 81 76 81 56z m2845
-15 c-3 -6 -19 -17 -36 -25 -27 -15 -29 -14 -29 4 0 21 13 29 48 30 13 1 20
-3 17 -9z m-1005 -214 c0 -4 14 -26 31 -48 29 -36 30 -42 19 -66 -31 -68 -80
-256 -80 -311 0 -25 -20 -38 -31 -20 -15 24 -10 300 7 390 9 46 18 87 21 92 5
8 32 -21 33 -37z m435 23 c11 -16 -25 -49 -54 -49 -59 1 -60 29 -1 47 47 15
48 15 55 2z m-2259 -44 c58 -41 53 -39 127 -53 32 -6 71 -21 87 -32 31 -22 40
-54 17 -63 -21 -8 -166 22 -207 43 -44 23 -114 105 -106 125 9 23 30 18 82
-20z m3396 13 c54 -63 -52 -264 -109 -207 -7 7 -5 25 7 62 10 29 26 78 34 110
18 63 36 72 68 35z m-2270 -98 c27 -91 28 -92 94 -114 72 -24 71 -23 52 -43
-25 -24 -75 -9 -140 43 -58 46 -78 83 -78 145 0 32 8 41 34 37 14 -2 24 -20
38 -68z m1044 56 c18 -14 18 -15 -9 -25 -36 -14 -73 -14 -99 0 -21 11 -21 12
-3 25 25 18 86 18 111 0z m-1716 -141 c23 -48 42 -72 71 -90 42 -27 50 -54 23
-76 -14 -11 -23 -9 -62 11 -66 36 -104 88 -110 151 -3 37 -1 54 9 60 27 17 38
8 69 -56z m2753 -8 c36 -16 48 -39 26 -53 -21 -13 -128 -5 -164 12 -33 15 -35
18 -22 38 25 37 76 38 160 3z m-1795 -43 c18 -5 20 -9 11 -20 -16 -20 -109
-19 -109 0 0 13 12 17 65 24 6 1 20 -1 33 -4z m1502 -34 c8 -16 7 -34 -4 -73
-19 -66 -76 -125 -129 -134 -34 -5 -37 -4 -37 18 0 13 20 53 44 89 23 36 51
77 60 93 19 32 51 35 66 7z m838 -165 c7 -14 12 -39 12 -55 0 -43 -46 -162
-71 -182 -45 -37 -102 -9 -65 31 10 10 30 61 47 112 16 52 31 100 34 107 7 21
31 13 43 -13z m-2686 -67 c32 -33 58 -65 58 -70 0 -14 -50 -9 -86 8 -44 21
-95 101 -73 115 27 17 44 8 101 -53z m863 -7 c10 -44 8 -132 -3 -143 -19 -19
-43 56 -36 116 7 61 28 76 39 27z m-2176 -22 c28 -6 60 -18 72 -28 18 -15 20
-21 10 -39 -15 -28 -49 -36 -107 -26 -55 10 -90 48 -79 83 7 24 29 26 104 10z
m2611 -14 c17 -20 -6 -55 -63 -96 -23 -17 -40 -33 -37 -37 9 -13 -66 -42 -126
-48 -48 -5 -62 -3 -73 10 -21 25 10 52 67 60 40 6 51 13 74 46 44 63 130 99
158 65z m-2262 -151 c17 -20 28 -42 26 -49 -5 -13 37 -59 78 -83 31 -18 40
-35 32 -57 -10 -25 -64 -23 -109 5 -36 22 -70 76 -67 107 1 12 -3 25 -8 28 -6
3 -10 24 -10 46 0 50 19 51 58 3z m442 -117 c0 -7 8 -20 18 -28 35 -33 54 -62
49 -79 -3 -13 3 -22 23 -30 15 -6 42 -27 61 -46 27 -28 31 -38 23 -52 -19 -30
-67 -26 -114 10 -24 18 -46 40 -50 48 -4 8 -15 29 -24 47 -16 30 -23 133 -10
146 9 9 24 -1 24 -16z m2689 -25 c6 -12 4 -34 -9 -72 -24 -71 -88 -132 -134
-128 -25 2 -32 8 -34 29 -2 20 13 46 64 107 67 83 94 99 113 64z m-1801 -125
c2 -11 -7 -30 -20 -44 -33 -36 -131 -83 -173 -83 -70 0 -123 46 -111 96 8 32
28 30 69 -5 l33 -30 80 44 c83 46 116 52 122 22z m1062 -93 c13 -23 12 -30 -5
-62 -29 -51 -68 -77 -117 -76 -64 2 -63 19 5 96 67 75 95 85 117 42z"/>
</g>
</svg>
