<?xml version="1.0" standalone="no"?>
<!DOCTYPE svg PUBLIC "-//W3C//DTD SVG 20010904//EN"
 "http://www.w3.org/TR/2001/REC-SVG-20010904/DTD/svg10.dtd">
<svg version="1.0" xmlns="http://www.w3.org/2000/svg"
 width="500.000000pt" height="500.000000pt" viewBox="0 0 500.000000 500.000000"
 preserveAspectRatio="xMidYMid meet">

<g transform="translate(0.000000,500.000000) scale(0.100000,-0.100000)"
fill="#000000" stroke="none">
<path d="M890 2430 l0 -1401 623 4 c539 3 634 6 712 21 388 75 625 267 711
577 26 92 26 336 0 434 -47 176 -139 293 -288 363 -45 22 -107 46 -135 53 -62
15 -69 34 -15 43 64 10 162 66 222 126 65 65 119 165 147 270 22 82 24 300 4
380 -44 178 -153 311 -321 394 -108 53 -198 78 -385 108 -118 19 -185 21 -702
25 l-573 5 0 -1402z m1070 900 c215 -28 307 -106 318 -267 11 -169 -57 -269
-215 -316 -58 -17 -105 -21 -325 -24 l-258 -5 0 311 0 311 203 0 c111 0 236
-5 277 -10z m115 -1105 c116 -33 194 -89 238 -170 19 -35 22 -56 22 -160 0
-111 -2 -124 -28 -177 -43 -88 -113 -140 -234 -174 -45 -13 -119 -18 -325 -21
l-268 -5 0 367 0 367 268 -5 c212 -3 279 -8 327 -22z"/>
<path d="M3520 2430 l0 -1400 295 0 295 0 0 1400 0 1400 -295 0 -295 0 0
-1400z"/>
</g>
</svg>
