<?xml version="1.0" standalone="no"?>
<!DOCTYPE svg PUBLIC "-//W3C//DTD SVG 20010904//EN"
 "http://www.w3.org/TR/2001/REC-SVG-20010904/DTD/svg10.dtd">
<svg version="1.0" xmlns="http://www.w3.org/2000/svg"
 width="1024.000000pt" height="1024.000000pt" viewBox="0 0 1024.000000 1024.000000"
 preserveAspectRatio="xMidYMid meet">

<g transform="translate(0.000000,1024.000000) scale(0.100000,-0.100000)"
fill="#000000" stroke="none">
<path d="M3770 8182 c0 -4 74 -49 163 -99 89 -51 268 -154 397 -229 129 -75
307 -178 395 -229 88 -50 210 -122 272 -158 61 -37 118 -67 126 -67 9 0 120
61 249 136 128 75 348 203 488 283 421 243 610 356 610 364 0 4 -607 7 -1350
7 -742 0 -1350 -4 -1350 -8z"/>
<path d="M6497 8098 c-99 -344 -387 -1468 -387 -1510 0 -16 13 -76 30 -132 16
-55 65 -238 109 -406 43 -168 124 -474 179 -680 55 -206 146 -548 202 -760
132 -502 137 -518 158 -524 16 -5 260 -76 700 -203 106 -30 195 -53 198 -51 2
3 -7 43 -20 89 -13 46 -33 118 -44 159 -11 41 -67 248 -125 460 -58 212 -128
473 -157 580 -28 107 -58 215 -65 240 -8 25 -57 205 -110 400 -53 195 -114
418 -135 495 -87 310 -193 703 -303 1115 -132 498 -207 774 -211 778 -2 2 -11
-20 -19 -50z"/>
<path d="M3707 8088 c-9 -29 -40 -147 -71 -263 -30 -115 -91 -343 -135 -505
-43 -162 -118 -439 -166 -615 -93 -347 -188 -696 -266 -980 -28 -99 -82 -297
-120 -440 -39 -143 -138 -507 -221 -810 -83 -302 -156 -571 -163 -597 -7 -27
-11 -48 -9 -48 12 0 891 253 904 260 11 6 31 66 58 167 23 87 80 302 127 478
47 176 123 466 170 645 147 560 224 849 275 1030 l50 175 -26 95 c-14 52 -54
208 -90 345 -35 138 -91 351 -124 475 -33 124 -83 315 -111 425 -28 110 -55
204 -59 208 -4 5 -15 -15 -23 -45z"/>
<path d="M3816 8012 c32 -119 110 -417 244 -932 61 -234 113 -433 116 -442 6
-20 -15 -36 330 252 116 96 282 235 371 307 88 73 167 141 176 151 16 18 2 27
-291 197 -169 98 -397 231 -507 295 -276 161 -451 260 -458 260 -3 0 5 -40 19
-88z"/>
<path d="M6254 7617 c-45 -50 -164 -187 -265 -303 -247 -282 -312 -354 -323
-354 -10 0 -242 184 -394 313 -57 48 -107 87 -110 87 -4 0 -18 -7 -30 -16 -22
-15 -23 -21 -17 -97 3 -45 14 -208 25 -362 18 -253 29 -417 61 -890 5 -82 16
-244 24 -360 8 -115 24 -345 35 -510 10 -165 25 -381 31 -479 10 -141 10 -201
0 -280 -17 -146 -117 -899 -146 -1111 -13 -99 -28 -205 -31 -235 -4 -30 -10
-64 -14 -75 -7 -18 -9 -17 -15 10 -4 17 -17 66 -30 110 -13 44 -48 177 -79
295 -30 118 -109 424 -174 680 -66 256 -215 845 -332 1310 -302 1201 -296
1178 -303 1155 -15 -49 -163 -600 -242 -900 -47 -181 -97 -368 -109 -415 -13
-47 -42 -155 -64 -240 -23 -85 -82 -308 -131 -496 -50 -188 -91 -350 -91 -360
0 -11 16 -30 37 -44 20 -14 374 -278 787 -587 413 -310 757 -563 764 -563 16
0 173 115 942 690 118 88 313 233 433 321 119 89 219 164 222 168 2 4 -12 66
-31 137 -19 71 -72 273 -119 449 -99 379 -149 565 -205 775 -41 151 -143 535
-237 893 -25 97 -49 177 -53 177 -4 0 -127 -483 -275 -1072 -362 -1453 -617
-2446 -637 -2478 -6 -10 -7 -6 -4 15 7 40 63 459 81 605 24 194 114 873 120
900 3 14 18 126 35 250 16 124 48 356 70 515 23 160 58 418 80 575 113 825
141 1026 145 1038 5 13 53 -21 260 -186 55 -44 103 -78 108 -75 23 14 0 47
-74 105 -104 81 -257 207 -264 217 -2 5 37 55 88 113 273 308 398 449 448 503
43 46 59 73 72 118 8 31 15 57 14 57 -1 0 -38 -42 -83 -93z m-894 -477 c91
-73 191 -152 223 -178 31 -25 57 -51 57 -57 0 -15 -68 -517 -115 -855 -19
-135 -57 -412 -85 -616 -63 -470 -98 -706 -105 -712 -3 -3 -5 3 -5 14 0 10 -5
80 -10 154 -6 74 -21 308 -35 520 -24 370 -62 938 -105 1558 -11 162 -20 300
-20 308 0 22 16 11 200 -136z"/>
<path d="M3295 3991 c-88 -26 -287 -83 -442 -127 -156 -43 -282 -82 -280 -85
1 -4 56 -53 122 -110 66 -57 244 -213 395 -347 404 -359 557 -495 935 -827
187 -164 396 -349 465 -410 69 -61 177 -156 240 -212 157 -138 279 -254 258
-247 -10 3 -18 10 -18 16 0 5 -4 7 -9 3 -5 -3 -12 -1 -16 4 -9 16 -124 5 -136
-13 -4 -4 -24 -10 -46 -11 -22 -1 -49 -6 -61 -9 -11 -4 -23 -2 -27 3 -3 6 -14
7 -29 1 -12 -4 -40 -11 -61 -14 -22 -4 -42 -11 -45 -16 -3 -5 -25 -12 -49 -16
-30 -5 -45 -13 -48 -25 -3 -11 -9 -19 -14 -19 -5 0 -6 8 -2 18 4 13 3 14 -6 6
-23 -21 -1 -42 50 -49 27 -4 49 -11 49 -17 0 -6 6 -8 14 -5 8 3 43 -1 78 -9
113 -27 218 -33 533 -35 292 -1 430 4 465 17 8 3 35 8 60 11 25 3 49 9 54 14
5 4 22 5 37 2 19 -3 29 -1 29 6 0 7 6 11 13 9 27 -5 87 24 87 42 0 25 -10 30
-67 36 -27 3 -53 12 -60 21 -6 8 -28 16 -50 18 -21 2 -50 6 -65 10 -17 4 -28
3 -28 -3 0 -7 -11 -8 -32 -1 -18 5 -47 9 -65 9 -17 0 -33 5 -35 12 -3 7 -31
11 -81 11 -42 0 -77 4 -77 9 0 5 -4 6 -10 3 -5 -3 -20 -8 -32 -10 -33 -6 -35
-8 737 670 143 126 357 315 475 420 118 105 415 366 659 580 244 215 460 404
480 422 27 24 32 33 21 37 -60 22 -887 256 -897 254 -14 -4 -2 14 -900 -1383
-141 -220 -431 -675 -590 -925 -65 -102 -139 -200 -152 -200 -21 0 -177 228
-456 670 -166 262 -503 790 -695 1090 -293 457 -351 548 -415 649 -40 63 -68
97 -80 98 -11 1 -92 -20 -180 -46z"/>
<path d="M3617 3929 c17 -24 66 -100 110 -169 239 -374 398 -623 553 -865 95
-148 257 -403 360 -565 157 -248 302 -472 420 -652 14 -21 28 -38 32 -38 6 0
0 1185 -7 1207 -3 9 -482 371 -1335 1007 -171 128 -168 127 -133 75z"/>
<path d="M6595 3928 c-129 -95 -649 -483 -715 -533 -43 -33 -185 -139 -316
-235 -130 -96 -278 -207 -328 -245 l-91 -71 -1 -607 c-1 -334 1 -607 5 -607 3
0 44 61 91 135 47 74 115 181 151 238 37 56 177 275 311 487 135 212 323 507
418 655 95 149 220 344 278 435 58 91 136 212 174 268 38 57 68 105 66 107 -2
1 -21 -11 -43 -27z"/>
</g>
</svg>
