<?xml version="1.0" standalone="no"?>
<!DOCTYPE svg PUBLIC "-//W3C//DTD SVG 20010904//EN"
 "http://www.w3.org/TR/2001/REC-SVG-20010904/DTD/svg10.dtd">
<svg version="1.0" xmlns="http://www.w3.org/2000/svg"
 width="500.000000pt" height="500.000000pt" viewBox="0 0 500.000000 500.000000"
 preserveAspectRatio="xMidYMid meet">

<g transform="translate(0.000000,500.000000) scale(0.100000,-0.100000)"
fill="#000000" stroke="none">
<path d="M1090 2396 l0 -2046 843 0 c916 0 997 4 1222 57 141 33 226 63 349
125 339 168 541 434 602 792 25 148 16 404 -20 541 -32 125 -98 260 -170 346
-95 116 -270 217 -462 267 -83 22 -81 39 9 62 383 100 608 519 547 1020 -61
499 -387 753 -1090 851 -146 21 -201 22 -992 26 l-838 5 0 -2046z m1582 1319
c297 -39 436 -155 455 -380 12 -147 -35 -295 -119 -372 -61 -55 -111 -80 -227
-110 -92 -25 -110 -26 -458 -31 l-363 -4 0 456 0 456 303 0 c203 0 337 -5 409
-15z m151 -1618 c272 -73 397 -226 397 -485 -1 -274 -129 -441 -395 -514 -75
-20 -106 -22 -472 -26 l-393 -3 0 531 0 532 383 -4 c375 -4 384 -5 480 -31z"/>
</g>
</svg>
