<?xml version="1.0" standalone="no"?>
<!DOCTYPE svg PUBLIC "-//W3C//DTD SVG 20010904//EN"
 "http://www.w3.org/TR/2001/REC-SVG-20010904/DTD/svg10.dtd">
<svg version="1.0" xmlns="http://www.w3.org/2000/svg"
 width="1080.000000pt" height="1080.000000pt" viewBox="0 0 1080.000000 1080.000000"
 preserveAspectRatio="xMidYMid meet">

<g transform="translate(0.000000,1080.000000) scale(0.100000,-0.100000)"
fill="#000000" stroke="none">
<path d="M5372 9390 c-139 -19 -299 -76 -405 -144 -123 -79 -250 -223 -322
-365 -35 -70 -71 -215 -80 -321 -4 -47 -11 -92 -16 -101 -6 -12 -36 -19 -116
-27 -199 -22 -355 -81 -500 -191 -97 -73 -147 -128 -218 -236 -133 -204 -193
-484 -155 -722 51 -311 235 -608 474 -762 135 -87 210 -119 346 -147 238 -49
467 -19 686 91 60 30 120 55 131 55 31 0 63 -46 63 -91 0 -32 -6 -43 -44 -74
-112 -91 -115 -220 -8 -323 56 -54 57 -55 56 -110 -2 -54 -2 -56 -67 -116 -71
-66 -87 -95 -87 -157 0 -60 21 -98 89 -161 l61 -56 1 -69 c1 -37 0 -824 -1
-1749 -1 -1200 1 -1692 9 -1721 21 -78 111 -136 211 -137 79 0 130 16 177 57
64 56 73 90 73 279 0 138 3 169 16 182 13 13 45 16 190 16 l174 0 6 26 c4 15
4 70 1 124 -3 53 -2 102 2 107 10 16 177 25 189 10 5 -6 13 -64 17 -128 4 -64
10 -121 15 -128 6 -10 58 -13 220 -13 116 0 216 4 220 8 11 11 15 337 6 353
-4 6 -38 11 -80 11 -43 0 -77 5 -84 12 -7 7 -12 40 -12 79 0 37 -4 79 -10 93
-9 25 -13 26 -90 26 -79 0 -81 1 -91 27 -12 31 -7 129 7 143 5 5 83 10 174 10
96 1 170 6 178 12 9 8 12 65 12 224 0 201 -1 214 -19 224 -12 6 -93 10 -195
10 -220 0 -209 8 -206 -144 2 -61 2 -117 1 -123 -1 -18 -172 -18 -189 -1 -8 8
-12 51 -12 128 0 77 -4 120 -12 128 -9 9 -69 12 -210 12 -180 0 -198 2 -207
18 -6 11 -9 369 -8 951 l2 934 29 21 c104 74 136 122 136 201 0 62 -21 100
-92 165 -54 49 -61 60 -65 102 -5 46 -4 48 47 100 63 63 80 99 80 168 0 64
-18 100 -88 173 -51 55 -54 61 -49 98 10 76 49 89 126 40 86 -55 167 -87 326
-128 109 -28 342 -25 460 5 399 103 720 470 776 888 14 106 6 332 -15 419 -8
33 -31 98 -50 144 -100 238 -246 395 -471 506 -126 63 -193 82 -347 99 -62 7
-113 18 -117 25 -4 7 -13 61 -20 121 -34 318 -181 554 -434 698 -170 98 -413
147 -595 122z m-52 -75 c6 4 17 2 25 -5 8 -6 29 -13 47 -15 18 -2 37 -4 41 -4
4 -1 -3 -16 -15 -33 -13 -18 -23 -34 -24 -35 0 -2 -36 -12 -80 -23 -214 -55
-367 -173 -484 -373 -39 -67 -66 -104 -70 -96 -4 6 -13 8 -19 5 -6 -4 -11 0
-11 9 0 9 -9 19 -20 22 -50 13 -3 166 88 279 40 51 163 151 246 199 83 49 229
91 253 72 7 -5 17 -6 23 -2z m299 -360 c92 -24 163 -65 232 -134 177 -178 196
-418 54 -701 -43 -85 -53 -115 -46 -129 15 -27 89 -91 106 -91 9 0 59 22 113
50 129 66 206 83 347 78 146 -6 216 -30 327 -113 119 -90 200 -207 233 -340
43 -170 15 -364 -73 -510 -69 -115 -189 -220 -300 -264 -65 -26 -189 -51 -250
-51 -60 0 -201 35 -267 66 -62 29 -105 68 -105 96 0 11 16 64 36 117 49 129
52 210 11 264 -15 20 -33 37 -39 37 -6 0 -43 -31 -83 -69 -83 -78 -185 -142
-264 -165 -70 -21 -219 -21 -296 -1 -85 22 -196 89 -280 168 -40 37 -80 67
-88 67 -26 0 -77 -71 -77 -106 0 -36 25 -111 69 -208 45 -99 43 -109 -30 -156
-198 -128 -455 -133 -657 -13 -77 46 -164 129 -213 203 -171 260 -136 628 78
831 110 105 216 147 388 156 134 7 222 -14 357 -83 48 -24 96 -44 107 -44 25
0 101 71 101 94 0 9 -25 67 -55 129 -79 160 -99 279 -74 426 33 189 176 343
369 397 61 17 203 17 269 -1z m-968 -602 c92 -96 99 -88 -84 -88 -152 0 -167
-2 -242 -29 -250 -89 -407 -221 -514 -434 -28 -56 -33 -61 -47 -47 -9 8 -20
15 -25 15 -5 0 -9 12 -9 26 0 15 -5 44 -11 64 -10 34 -9 43 21 98 60 114 222
272 336 330 99 50 297 92 433 92 70 0 82 2 77 15 -10 28 10 15 65 -42z m1649
-99 c0 -2 -7 -4 -15 -4 -8 0 -15 4 -15 10 0 5 7 7 15 4 8 -4 15 -8 15 -10z
m-210 -26 c8 -1 22 1 30 4 8 3 12 3 8 1 -5 -3 -8 -12 -8 -22 0 -25 -163 -181
-189 -181 -26 0 -26 8 -2 34 17 20 28 40 76 139 17 34 22 38 44 32 15 -3 33
-7 41 -7z m-140 -1039 c-14 -47 -52 -106 -118 -184 -91 -107 -103 -113 -212
-117 l-92 -3 -2 52 c-1 28 3 58 9 66 6 9 46 25 89 37 88 23 180 67 228 108 43
37 91 71 100 72 4 0 3 -14 -2 -31z m1064 -104 c3 -9 11 -15 18 -13 7 1 24 -4
37 -11 12 -7 32 -11 42 -8 25 7 25 6 -16 -72 -88 -166 -293 -332 -465 -375
-113 -28 -110 -28 -110 -8 0 9 9 24 20 32 24 17 26 40 5 40 -8 0 -15 8 -15 18
1 11 26 29 78 54 68 32 198 113 243 150 27 23 114 143 128 176 15 35 26 40 35
17z m-1813 -231 c23 -14 -101 -128 -191 -173 -67 -35 -171 -76 -225 -90 -60
-15 -180 -24 -212 -16 -26 6 -27 7 -9 20 13 10 17 21 12 38 -10 43 19 64 109
78 44 6 100 18 124 25 56 17 155 74 205 117 l39 33 69 -13 c39 -7 74 -15 79
-19z m264 -504 c-3 -5 -17 -10 -30 -10 -13 0 -27 5 -30 10 -4 6 8 10 30 10 22
0 34 -4 30 -10z m-1 -86 c21 -8 20 -31 -1 -38 -50 -14 -105 -16 -142 -6 -43
11 -49 18 -29 38 12 12 143 17 172 6z m-4 -544 c26 -18 -9 -30 -85 -30 -79 0
-109 11 -79 29 24 13 144 14 164 1z"/>
</g>
</svg>
